<svg id="Layer_1" data-name="Layer 1" xmlns="http://www.w3.org/2000/svg" xmlns:xlink="http://www.w3.org/1999/xlink" viewBox="0 0 512 512"><defs><pattern id="USGS_8_Sewage_Disposal" data-name="USGS 8 Sewage Disposal" width="72" height="74.8" patternTransform="translate(-303.3 745.62) scale(2.71 2.71)" patternUnits="userSpaceOnUse" viewBox="0 0 72 74.8"><rect width="72" height="74.8" fill="none"/><line y1="73.95" x2="72" y2="73.95" fill="none" stroke="#1f191a" stroke-linecap="square" stroke-width="0.3"/><line y1="72.25" x2="72" y2="72.25" fill="none" stroke="#1f191a" stroke-linecap="square" stroke-width="0.3"/><line y1="70.55" x2="72" y2="70.55" fill="none" stroke="#1f191a" stroke-linecap="square" stroke-width="0.3"/><line y1="68.85" x2="72" y2="68.85" fill="none" stroke="#1f191a" stroke-linecap="square" stroke-width="0.3"/><line y1="67.15" x2="72" y2="67.15" fill="none" stroke="#1f191a" stroke-linecap="square" stroke-width="0.3"/><line y1="65.45" x2="72" y2="65.45" fill="none" stroke="#1f191a" stroke-linecap="square" stroke-width="0.3"/><line y1="63.75" x2="72" y2="63.75" fill="none" stroke="#1f191a" stroke-linecap="square" stroke-width="0.3"/><line y1="62.05" x2="72" y2="62.05" fill="none" stroke="#1f191a" stroke-linecap="square" stroke-width="0.3"/><line y1="60.35" x2="72" y2="60.35" fill="none" stroke="#1f191a" stroke-linecap="square" stroke-width="0.3"/><line y1="58.65" x2="72" y2="58.65" fill="none" stroke="#1f191a" stroke-linecap="square" stroke-width="0.3"/><line y1="56.95" x2="72" y2="56.95" fill="none" stroke="#1f191a" stroke-linecap="square" stroke-width="0.3"/><line y1="55.25" x2="72" y2="55.25" fill="none" stroke="#1f191a" stroke-linecap="square" stroke-width="0.3"/><line y1="53.55" x2="72" y2="53.55" fill="none" stroke="#1f191a" stroke-linecap="square" stroke-width="0.3"/><line y1="51.85" x2="72" y2="51.85" fill="none" stroke="#1f191a" stroke-linecap="square" stroke-width="0.3"/><line y1="50.15" x2="72" y2="50.15" fill="none" stroke="#1f191a" stroke-linecap="square" stroke-width="0.3"/><line y1="48.45" x2="72" y2="48.45" fill="none" stroke="#1f191a" stroke-linecap="square" stroke-width="0.3"/><line y1="46.75" x2="72" y2="46.75" fill="none" stroke="#1f191a" stroke-linecap="square" stroke-width="0.3"/><line y1="45.05" x2="72" y2="45.05" fill="none" stroke="#1f191a" stroke-linecap="square" stroke-width="0.3"/><line y1="43.35" x2="72" y2="43.35" fill="none" stroke="#1f191a" stroke-linecap="square" stroke-width="0.3"/><line y1="41.65" x2="72" y2="41.65" fill="none" stroke="#1f191a" stroke-linecap="square" stroke-width="0.3"/><line y1="39.95" x2="72" y2="39.95" fill="none" stroke="#1f191a" stroke-linecap="square" stroke-width="0.3"/><line y1="38.25" x2="72" y2="38.25" fill="none" stroke="#1f191a" stroke-linecap="square" stroke-width="0.3"/><line y1="36.55" x2="72" y2="36.55" fill="none" stroke="#1f191a" stroke-linecap="square" stroke-width="0.3"/><line y1="34.85" x2="72" y2="34.85" fill="none" stroke="#1f191a" stroke-linecap="square" stroke-width="0.3"/><line y1="33.15" x2="72" y2="33.15" fill="none" stroke="#1f191a" stroke-linecap="square" stroke-width="0.3"/><line y1="31.45" x2="72" y2="31.45" fill="none" stroke="#1f191a" stroke-linecap="square" stroke-width="0.3"/><line y1="29.75" x2="72" y2="29.75" fill="none" stroke="#1f191a" stroke-linecap="square" stroke-width="0.3"/><line y1="28.05" x2="72" y2="28.05" fill="none" stroke="#1f191a" stroke-linecap="square" stroke-width="0.3"/><line y1="26.35" x2="72" y2="26.35" fill="none" stroke="#1f191a" stroke-linecap="square" stroke-width="0.3"/><line y1="24.65" x2="72" y2="24.65" fill="none" stroke="#1f191a" stroke-linecap="square" stroke-width="0.3"/><line y1="22.95" x2="72" y2="22.95" fill="none" stroke="#1f191a" stroke-linecap="square" stroke-width="0.3"/><line y1="21.25" x2="72" y2="21.25" fill="none" stroke="#1f191a" stroke-linecap="square" stroke-width="0.3"/><line y1="19.55" x2="72" y2="19.55" fill="none" stroke="#1f191a" stroke-linecap="square" stroke-width="0.3"/><line y1="17.85" x2="72" y2="17.85" fill="none" stroke="#1f191a" stroke-linecap="square" stroke-width="0.3"/><line y1="16.15" x2="72" y2="16.15" fill="none" stroke="#1f191a" stroke-linecap="square" stroke-width="0.3"/><line y1="14.45" x2="72" y2="14.45" fill="none" stroke="#1f191a" stroke-linecap="square" stroke-width="0.3"/><line y1="12.75" x2="72" y2="12.75" fill="none" stroke="#1f191a" stroke-linecap="square" stroke-width="0.3"/><line y1="11.05" x2="72" y2="11.05" fill="none" stroke="#1f191a" stroke-linecap="square" stroke-width="0.3"/><line y1="9.35" x2="72" y2="9.35" fill="none" stroke="#1f191a" stroke-linecap="square" stroke-width="0.3"/><line y1="7.65" x2="72" y2="7.65" fill="none" stroke="#1f191a" stroke-linecap="square" stroke-width="0.3"/><line y1="5.95" x2="72" y2="5.95" fill="none" stroke="#1f191a" stroke-linecap="square" stroke-width="0.3"/><line y1="4.25" x2="72" y2="4.25" fill="none" stroke="#1f191a" stroke-linecap="square" stroke-width="0.3"/><line y1="2.55" x2="72" y2="2.55" fill="none" stroke="#1f191a" stroke-linecap="square" stroke-width="0.3"/><line y1="0.85" x2="72" y2="0.85" fill="none" stroke="#1f191a" stroke-linecap="square" stroke-width="0.3"/><line x1="-21.5" y1="7.65" x2="-10.25" y2="7.65" fill="none" stroke="#1f191a" stroke-linecap="square" stroke-width="0.3"/></pattern></defs><title>skype-other</title><path d="M512,281.59c0,126.24-102.28,228.49-228.47,228.49S55.12,407.83,55.12,281.59,157.34,52.84,283.53,52.84,512,155.34,512,281.59Z" fill="url(#USGS_8_Sewage_Disposal)"/><path d="M495,264.61C495,390.85,392.76,493.1,266.57,493.1S38.16,390.85,38.16,264.61,140.38,35.87,266.57,35.87,495,138.37,495,264.61Z" fill="url(#USGS_8_Sewage_Disposal)"/><path d="M469.6,245.51C469.6,371.76,367.32,474,241.13,474S12.72,371.76,12.72,245.51,114.94,16.77,241.13,16.77,469.6,119.27,469.6,245.51Z" fill="#1f191a"/><path d="M463.24,234.9C463.24,361.15,361,463.4,234.77,463.4S6.36,361.15,6.36,234.9,108.58,6.16,234.77,6.16,463.24,108.66,463.24,234.9Z" fill="#333"/><path d="M469.6,245.51C469.6,371.76,367.32,474,241.13,474S12.72,371.76,12.72,245.51,114.94,16.77,241.13,16.77,469.6,119.27,469.6,245.51Z" fill="none" stroke="#1f191a" stroke-width="2.12"/><path d="M459,232.78C459,359,356.72,461.28,230.53,461.28S2.12,359,2.12,232.78,104.34,4,230.53,4,459,106.54,459,232.78Z" fill="#fff"/><path d="M459,232.78C459,359,356.72,461.28,230.53,461.28S2.12,359,2.12,232.78,104.34,4,230.53,4,459,106.54,459,232.78Z" fill="#fff"/><path d="M459,232.78C459,359,356.72,461.28,230.53,461.28S2.12,359,2.12,232.78,104.34,4,230.53,4,459,106.54,459,232.78Z" fill="none" stroke="#1f191a" stroke-width="4.24"/><path d="M344.75,277.78v-3a59.8,59.8,0,0,0-7.07-23.57s-.22-.42-.42-.42a1.93,1.93,0,0,0-.64-1.06v-1.06c.42-1.06.53-2.11.84-3.17.22-.32-.21-.63.22-.63v-1.16h0c.22-.32,0-.63.22-.63v-.42c.21-.63,0-1.06.42-1.8v-.32a2,2,0,0,1,0-1.16h0c.21-.32,0-.85,0-1.16a33.68,33.68,0,0,0,.42-6.45v-.42a63.36,63.36,0,0,0-.42-8.77,28,28,0,0,0-.64-5.81h0c-.42-.32,0-.63-.22-1-.31,0-.21-.32-.21-.74s0-.74-.11-.74a15.28,15.28,0,0,0-1-3.91,36.05,36.05,0,0,0-1.69-7.08c-.84-2.85-1.79-5.5-2.85-8.14a41.46,41.46,0,0,0-2.22-4.86c-.63-1.37-.84-2.85-1.69-3.8a93.31,93.31,0,0,0-10-16.28,15,15,0,0,0-3.37-4.33c-1.79-2.11-3.48-4.65-5.6-6.76,0-.32-.42-.32-.63-.32a9.39,9.39,0,0,0-1.59-1.9,23.28,23.28,0,0,0-1.79-1.69c-.21-.32-.53-.63-.63-.63-2.32-2.11-4.87-4.33-7.08-6-1.58-1.48-3.06-2.43-4.54-3.59-.21,0-.42-.32-.42-.32a119.6,119.6,0,0,0-31-15.32c-2.75-.63-5.38-1.27-8.24-1.69h0c-.1-.42-.31-.42-.63-.42h-1.48a16.86,16.86,0,0,0-3.17-.63h-.21c-.22-.32-.42-.32-.64,0l-.21-.32h-2.12a1.15,1.15,0,0,0-1-.42h-2.75c0-.32,0-.32-.22-.32h-3.9a5,5,0,0,0-2.32-.42h-6.65a26.85,26.85,0,0,0-5.91.42h-1.69v.32h-.22c-.42,0-.84-.32-1.26,0h-1.48a1.28,1.28,0,0,0-1.06.42h-.1a11.5,11.5,0,0,0-3.28.32c-1.26.42-2.53-.32-3.81-.74-8-4.12-16.25-6.76-25.33-7.08v-.32h-8.45a1.9,1.9,0,0,1-1.27.32,24,24,0,0,0-4.85.32,63.3,63.3,0,0,0-19.43,7.19,61.3,61.3,0,0,0-13,9.93,42,42,0,0,0-4.75,5,56.34,56.34,0,0,0-7.82,11.94,57,57,0,0,0-5,11.94,45.11,45.11,0,0,0-2.22,14.58h-.22v8.56h.22a56.21,56.21,0,0,0,3.48,17.23,48.68,48.68,0,0,0,3.9,8.88,4.87,4.87,0,0,1,.22,2.11,34.91,34.91,0,0,0-.84,6.45c-.22,0-.22.32-.22.32a124.82,124.82,0,0,0,0,15.32,40.29,40.29,0,0,0,.64,6.66v.63s0,.53.21.53h0a1.71,1.71,0,0,0,.22,1h0v.74h0v.21a2.28,2.28,0,0,0,.11.85h0c0,.42.21.42.21.63a93.5,93.5,0,0,0,7.93,26.31,69.29,69.29,0,0,0,3.9,8,1.31,1.31,0,0,1,.11.63,127.38,127.38,0,0,0,7.81,11.84,60.46,60.46,0,0,0,6.13,7.61c.11,0,.21.53.42.53a3.44,3.44,0,0,1,.74,1,8.24,8.24,0,0,1,1,1.16,2.7,2.7,0,0,1,1.26,1.37c.22,0,.42,0,.42.32a120.9,120.9,0,0,0,15.42,12.79A58.5,58.5,0,0,0,177,326c.84.53,1.79,1,2.64,1.37a17.29,17.29,0,0,0,2,1c.11,0,.22,0,.42.42a96.84,96.84,0,0,0,11.51,4.54,44.51,44.51,0,0,0,7.82,2.54,10.68,10.68,0,0,0,3.06.74c0,.42.31,0,.53,0a1.08,1.08,0,0,0,1,.42c.63,0,1.26.32,1.89.32h.64l.21.21h.42c.64,0,1.06.32,1.7.32h1.9c.42.42.52.42.84.42h1.26c.42.53.63.53,1,.53h3.06a1.66,1.66,0,0,0,1.06.32h2.53a16.46,16.46,0,0,0,3.28.21h.74c5.6,0,10.88-.21,16.57-.53a67.44,67.44,0,0,1,6.65-1.27c.43.32.53.32.53.32a72.14,72.14,0,0,0,28.4,9h8a26,26,0,0,0,5-.32,38.48,38.48,0,0,0,9-2.22c3.59-1,7-2.85,10.35-4.65a58.28,58.28,0,0,0,12.46-9.09c2-1.8,3.79-4,5.38-5.71a65.65,65.65,0,0,0,8.55-13.42A59.71,59.71,0,0,0,342.33,299a51.42,51.42,0,0,0,2.42-14.58v-6.66ZM251.41,127.29h0Zm.75,0c0,.42.11.42.11.42s-.11,0-.11-.42Z" fill="#434040" fill-rule="evenodd"/><path d="M209.92,167c1.26-.42,2.53-.74,3.59-1.06.42.32.84,0,1,0,.21-.42.52,0,.94,0v-.42c.11,0,.42.42.64,0h1.26c.31-.42.64,0,.84-.42h1.7c.42-.32.84,0,1.37,0,.1,0,.1,0,.31-.32.74,0,1.48.32,2.11,0h5.81c3.06.32,6,.32,8.88.74a69.67,69.67,0,0,1,23.86,8.24,49,49,0,0,1,7.28,5.6,19.75,19.75,0,0,1,5.91,7.19,16.88,16.88,0,0,1,2,4.44,3.31,3.31,0,0,1,.11.74v.32c.21,0,0,.32.21.32a19,19,0,0,1-.42,6.13,12.39,12.39,0,0,1-14.15,8.14c-1.69-.32-3-1.48-4.22-2.43a49.62,49.62,0,0,1-4.34-3.91,27.94,27.94,0,0,0-7.49-7.08,2.21,2.21,0,0,1-1.69-.85h-.22a48.66,48.66,0,0,0-4.64-2.43c-3-1.37-5.91-1.69-9.08-2.43a21.75,21.75,0,0,0-7.4,0A21.09,21.09,0,0,0,212,191a17.05,17.05,0,0,0-5.91,7.82,7.34,7.34,0,0,0,1.27,7.5,15.44,15.44,0,0,0,6.13,5,46.7,46.7,0,0,0,9.6,3.81,2.19,2.19,0,0,1,1.37.74c2,.63,4,1,6.13,1.8,5.28,1.06,10.77,2.11,16,3.49a57.18,57.18,0,0,1,7.91,2.54h.75c1.79.63,3.9,1.8,5.81,2.32,6.23,3.06,11.72,6.45,16.26,11.41.53.32,1.16,1.16,1.58,1.37a42.8,42.8,0,0,1,3.91,6.13,25.72,25.72,0,0,1,3.06,8.77c0,.32.11.32.11.74v1.06a20.07,20.07,0,0,1,0,5,16.15,16.15,0,0,1-1,4.86c-2.12,9-7,15.64-13.52,21.67-.22,0-.42.42-.42.42s-.22.32-.32.32a.57.57,0,0,0-.52.32,10,10,0,0,1-1.7,1.48,6.26,6.26,0,0,1-2,1.27c-.32.42-.32.42-.75.42a54.38,54.38,0,0,0-4.85,2.85,1,1,0,0,1-1,.74c-.75.32-1.48.63-2.32.95-2.75,1.16-5.38,1.8-8.24,3-1.69.32-3.48.63-5.28,1.06-1.17.32-2.43.32-3.59.63h-4c-3.17.42-6.34,0-9.3,0a108.16,108.16,0,0,1-16.89-2.85h-.42a3.06,3.06,0,0,0-1.7-.32c-.84-.32-1.69-.63-2.75-1.06-2.53-.74-5-1.8-7.49-2.75a52,52,0,0,1-17.31-12.79h-.11A39,39,0,0,0,178,277a21,21,0,0,1-2.53-6.34,1.53,1.53,0,0,1-.31-1.06c-.11-.32,0-.32-.11-.63v-.53a9.14,9.14,0,0,1,0-2.43v-.32c.11,0,0-.42.11-.63a10,10,0,0,1,2.64-5.39,13.6,13.6,0,0,1,6.54-3.49h.75c.1-.32.53,0,.74,0h.22c.21-.32.84,0,1.16-.32a11.8,11.8,0,0,1,3.37.32,13.09,13.09,0,0,1,7.29,3.49c.42.32,1.06,1.16,1.48,1.48a3.72,3.72,0,0,1,2,1.8,58.59,58.59,0,0,0,4.11,4.54A41.38,41.38,0,0,0,216,275.14c.42,0,.84.53,1.26,1,2.54.53,4.76,1.69,7.18,2h.75a1,1,0,0,1,.74.32h2.53c.11,0,.32,0,.32.42H233c0-.42.11-.42.32-.42h2.31A27.21,27.21,0,0,0,247.51,274a15.6,15.6,0,0,0,5.91-9.62c.42-4.65-1-8.14-4.32-11a18.05,18.05,0,0,0-5.29-3.59A87.4,87.4,0,0,0,233,245.87c-4.22-1-8.55-2.11-12.77-3.17-.42-.32-.84-.32-1.06-.63-2.64-.85-5.28-1.16-7.82-2.11a58.89,58.89,0,0,1-18.58-7.19c-1.17-.32-2.32-1.37-3.59-2-1.79-1.16-3.38-2.64-5-3.81a28.51,28.51,0,0,1-7.82-15.32v-.74c-.31-.42,0-.74-.31-.74v-1.8c-.22-1.69,0-3.17-.22-5a1.12,1.12,0,0,1,.22-.85V202c.21-.32,0-.74,0-1.48h0c.31-.21,0-.53.31-.53v-1.16a6.69,6.69,0,0,1,.74-2.75s0-.42-.21-.42a11.63,11.63,0,0,0,1-3.28,38.69,38.69,0,0,1,7.18-11.63,44.6,44.6,0,0,1,13.95-9.83,11.25,11.25,0,0,1,5.06-2.11l.22-.53C206.33,168.09,208,167.34,209.92,167Z" fill="#fff" fill-rule="evenodd"/></svg>